<!-- Generated by IcoMoon.io -->
<svg version="1.1" xmlns="http://www.w3.org/2000/svg" width="32" height="32" viewBox="0 0 32 32">
<title>kb-catlogo-volume</title>
<path d="M18.32 3.84c-0.8-0.48-1.76-0.48-2.56 0l-0.080 0.080-7.28 6.88h-3.92c-2.16 0-3.84 1.76-3.84 3.84v4.24c0 2.16 1.76 3.84 3.84 3.84h3.84l7.36 6.96c0.4 0.24 0.88 0.32 1.28 0.32 0.48 0 0.88-0.080 1.28-0.32 0.8-0.48 1.28-1.28 1.28-2.24l0.080-21.36c0-0.96-0.48-1.76-1.28-2.24zM8 21.52h-3.52c-1.44 0-2.64-1.2-2.64-2.64v-4.24c0-1.44 1.2-2.64 2.64-2.64h3.52v9.52zM18.4 27.44c0 0.48-0.24 0.96-0.72 1.2-0.4 0.24-0.88 0.24-1.28 0l-7.2-6.8v-10.24l7.2-6.8c0.4-0.24 0.88-0.24 1.28 0 0.48 0.32 0.72 0.72 0.72 1.28v21.36zM21.92 22.56c-0.080 0.16-0.24 0.16-0.4 0.16s-0.32-0.080-0.4-0.16c-0.24-0.24-0.24-0.64 0-0.88 4.88-4.96 0.24-9.76 0-9.92-0.24-0.24-0.24-0.64 0-0.88s0.64-0.24 0.88 0c0 0.080 5.6 5.84-0.080 11.68zM24.32 25.2c-0.080 0.16-0.32 0.24-0.48 0.24s-0.24-0.080-0.4-0.16c-0.24-0.24-0.32-0.56-0.080-0.88 2.64-3.28 3.44-6.72 2.4-10.24-0.8-2.64-2.4-4.32-2.4-4.32-0.24-0.24-0.24-0.64 0-0.88s0.64-0.24 0.88 0c0.16 0.080 7.040 7.6 0.080 16.24zM30.8 16.24c0.24 4.16-1.44 8.32-5.040 12.32-0.080 0.16-0.32 0.16-0.48 0.16s-0.32-0.080-0.4-0.16c-0.24-0.24-0.24-0.64-0.080-0.88 3.36-3.76 4.96-7.6 4.72-11.44-0.32-5.76-4.64-9.68-4.72-9.68-0.24-0.24-0.24-0.56-0.080-0.88 0.24-0.24 0.56-0.24 0.88-0.080 0.32 0.24 4.88 4.32 5.2 10.64zM4.16 20.080h2.72c0.32 0 0.64 0.24 0.64 0.64s-0.32 0.56-0.72 0.56h-2.64c-1.12 0-2-0.88-2-2v-2.56c0-0.32 0.24-0.64 0.64-0.64s0.64 0.24 0.64 0.64v2.56c-0.16 0.48 0.24 0.8 0.72 0.8z"></path>
</svg>
