<!-- Generated by IcoMoon.io -->
<svg version="1.1" xmlns="http://www.w3.org/2000/svg" width="32" height="32" viewBox="0 0 32 32">
<title>kb-finance-handmoney</title>
<path d="M16.080 8.8c0 0.080 0 0.080 0 0.16v6.24c0 1.52 2.96 2.24 5.76 2.24 2.72 0 5.84-0.56 5.84-2.16v-2.080c0 0 0-0.080 0-0.080s0-0.080 0-0.080v-8.72c0 0 0 0 0 0s0 0 0 0c0-1.52-3.040-2.24-5.84-2.24s-5.84 0.72-5.84 2.24c0 0 0 0.080 0 0.080s0 0 0 0.080v2.4c0 0 0 0 0 0.080 0 0 0 0.080 0 0.080v1.68c0.16 0 0.080 0 0.080 0.080zM17.36 13.040v-0.72c1.040 0.56 2.64 0.88 4.56 0.88 1.68 0 3.52-0.24 4.64-0.8v0.72c-0.16 0.32-1.68 1.040-4.56 1.040-3.040 0-4.56-0.8-4.64-1.12 0 0 0 0 0 0zM26.56 10.8c0 0 0 0.080 0 0.080-0.16 0.32-1.68 1.12-4.64 1.12-2.88 0-4.4-0.8-4.56-1.2v-0.56c1.12 0.56 2.88 0.8 4.56 0.8s3.52-0.24 4.64-0.8v0.56zM26.56 6.88c0 0-0.080 0 0 0-0.16 0.32-1.68 1.12-4.64 1.12s-4.48-0.72-4.56-1.040v-1.2c1.12 0.56 2.88 0.8 4.56 0.8s3.44-0.24 4.64-0.8v1.12zM21.92 9.2c1.68 0 3.52-0.24 4.64-0.8v0.32c0 0 0 0.080 0 0.080-0.080 0.32-1.6 1.040-4.64 1.040-2.88 0-4.4-0.72-4.56-1.040v-0.4c1.12 0.56 2.88 0.8 4.56 0.8zM21.92 16.32c-2.96 0-4.48-0.72-4.56-1.040v-0.8c1.12 0.56 2.88 0.8 4.64 0.8 1.68 0 3.44-0.24 4.56-0.8v0.8c-0.080 0.32-1.6 1.040-4.64 1.040zM21.92 3.2c2.96 0 4.48 0.8 4.64 1.040-0.16 0.32-1.68 1.040-4.64 1.040s-4.48-0.8-4.64-1.040c0.080-0.24 1.68-1.040 4.64-1.040zM31.040 22.72c-0.72-0.56-1.84-0.16-2.080-0.080h-0.080l-3.84 2.080c-1.6 0.96-4.8 0.16-6.88-0.56 0.32 0 0.72 0.080 0.96 0.080 5.12 1.12 6.48 0.080 6.72-0.16l0.080-0.080c0.64-0.8 0.72-1.6 0.48-2.24-0.56-1.36-2.8-1.6-3.040-1.6h-0.16c-3.28 0.4-5.84-0.72-6.16-0.88-3.28-2.48-9.28-0.72-10.4-0.32l-0.64-0.16v-1.12c0-0.32-0.24-0.64-0.64-0.64h-4.32c-0.32 0-0.64 0.24-0.64 0.64v9.92c0 0.32 0.24 0.64 0.64 0.64h4.4c0.32 0 0.64-0.24 0.64-0.64v-1.52l0.56 0.080 1.28 0.4c0.080 0 0.24 0 0.32 0 0.72 0.080 4.72 2.080 8.16 4.080l0.080 0.080c0.4 0.16 0.88 0.16 1.52 0.16 2.72 0 7.36-1.040 8-1.12l0.16-0.080c4.24-2.4 5.28-5.2 5.36-5.36v-0.16c0.080-0.8-0.24-1.2-0.48-1.44zM4.88 26.96h-3.2v-8.64h3.2v8.64zM30.32 23.92c-0.16 0.4-1.28 2.64-4.72 4.64-2.8 0.64-7.44 1.44-8.72 1.040-6.4-3.68-8.16-4.16-8.72-4.16l-1.2-0.4h-0.080l-0.8-0.080v-4.96l0.56 0.080c0.080 0 0.24 0 0.32 0s6.4-2.16 9.44 0.16l0.080 0.080c0.16 0.080 3.040 1.52 6.88 1.040 0.56 0.080 1.76 0.4 2 0.88 0.16 0.32-0.080 0.64-0.24 0.96-0.24 0.16-1.52 0.72-5.6-0.16-0.24-0.080-2.4-0.56-3.28 0.72-0.080 0.16-0.16 0.32-0.080 0.48s0.16 0.32 0.32 0.4c0.24 0.16 6.24 2.88 9.28 1.12l3.76-2.080c0.32-0.080 0.8-0.16 0.88-0.080-0.080 0.080-0.080 0.16-0.080 0.32z"></path>
</svg>
