<!-- Generated by IcoMoon.io -->
<svg version="1.1" xmlns="http://www.w3.org/2000/svg" width="32" height="32" viewBox="0 0 32 32">
<title>KB-PRODUCTIVITY_Graph</title>
<path d="M28.4 4.32h-24.56c-1.76 0-3.12 1.44-3.12 3.12v13.76c0 1.76 1.44 3.12 3.12 3.12h11.52v2.16h-2.32c-0.32 0-0.64 0.24-0.64 0.64s0.24 0.64 0.64 0.64h6.32c0.32 0 0.64-0.24 0.64-0.64s-0.24-0.64-0.64-0.64h-2.8v-2.16h11.76c1.76 0 3.12-1.44 3.12-3.12v-13.76c0.080-1.76-1.36-3.12-3.040-3.12zM3.84 5.52h24.56c1.040 0 1.92 0.88 1.92 1.92v13.28h-28.4v-13.28c0-1.040 0.88-1.92 1.92-1.92zM28.4 23.12h-24.56c-0.8 0-1.52-0.56-1.84-1.28h28.16c-0.24 0.8-0.96 1.28-1.76 1.28z"></path>
<path d="M8.88 18.96c0.72 0 1.36-0.64 1.36-1.36 0-0.16 0-0.32-0.080-0.48l1.84-2c0.080 0 0.24 0.080 0.32 0.080 0.4 0 0.72-0.16 0.96-0.4l0.72 0.24c0.32 1.28 1.44 2.16 2.8 2.16 0.56 0 1.12-0.16 1.6-0.48l1.28 1.28c0.080 0.16 0.24 0.16 0.4 0.16s0.32-0.080 0.4-0.16c0.24-0.24 0.24-0.64 0-0.88l-1.28-1.28c0.24-0.4 0.4-0.96 0.4-1.44 0-0.24-0.080-0.48-0.080-0.72l2.56-2.24c0.16 0.080 0.32 0.080 0.48 0.080 0.72 0 1.36-0.64 1.36-1.36s-0.64-1.36-1.36-1.36-1.36 0.64-1.36 1.36c0 0.16 0 0.24 0.080 0.4l-2.32 2.080c-0.56-0.64-1.28-1.040-2.16-1.040-1.36 0-2.48 0.96-2.8 2.24l-0.32-0.24c-0.080-0.64-0.64-1.2-1.36-1.2s-1.36 0.64-1.36 1.36c0 0.16 0.080 0.4 0.080 0.56l-1.76 1.92c-0.16-0.080-0.24-0.080-0.4-0.080-0.72 0-1.36 0.64-1.36 1.36s0.56 1.44 1.36 1.44zM22.64 9.92c0.080 0 0.16 0.080 0.16 0.16 0 0.16-0.32 0.16-0.32 0 0-0.080 0.080-0.16 0.16-0.16zM16.8 12.72c0.88 0 1.68 0.72 1.68 1.68s-0.8 1.6-1.68 1.6c-0.88 0-1.68-0.72-1.68-1.68s0.72-1.6 1.68-1.6zM12.32 13.68c0.080 0 0.16 0.080 0.16 0.16 0 0.16-0.32 0.16-0.32 0 0-0.080 0.080-0.16 0.16-0.16zM8.88 17.44c0.080 0 0.080 0 0.16 0.080 0 0 0 0 0 0s0.080 0.080 0.080 0.16c0 0.16-0.32 0.16-0.32 0-0.080-0.16-0.080-0.24 0.080-0.24z"></path>
<path d="M17.2 22.080h-2.4c-0.24 0-0.4 0.16-0.4 0.4s0.16 0.4 0.4 0.4h2.4c0.24 0 0.4-0.16 0.4-0.4s-0.16-0.4-0.4-0.4z"></path>
</svg>
