<!-- Generated by IcoMoon.io -->
<svg version="1.1" xmlns="http://www.w3.org/2000/svg" width="32" height="32" viewBox="0 0 32 32">
<title>KB-ANALYTICS_Task-2</title>
<path d="M11.2 3.76h-4c-0.88 0-1.52 0.72-1.52 1.52v24.48c0 0.88 0.72 1.52 1.52 1.52h17.6c0.88 0 1.52-0.72 1.52-1.52v-24.48c0-0.88-0.72-1.52-1.52-1.52h-4.48c-0.32 0-0.64 0.24-0.64 0.64v1.12h-7.92v-1.2c0-0.32-0.24-0.56-0.56-0.56zM24.8 30.080h-17.6c-0.16 0-0.32-0.16-0.32-0.32v-21.28h18.24v21.28c0 0.16-0.16 0.32-0.32 0.32zM20.32 6.64c0.32 0 0.64-0.24 0.64-0.64v-1.040h3.84c0.16 0 0.32 0.16 0.32 0.32v2h-18.24v-2c0-0.16 0.16-0.32 0.32-0.32h3.36v1.12c0 0.32 0.24 0.64 0.64 0.64h9.12z"></path>
<path d="M22.24 13.36h-10.88c-0.32 0-0.64 0.24-0.64 0.64s0.24 0.64 0.64 0.64h10.96c0.32 0 0.64-0.24 0.64-0.64s-0.32-0.64-0.72-0.64z"></path>
<path d="M11.36 19.68h6.96c0.32 0 0.64-0.24 0.64-0.64s-0.24-0.64-0.64-0.64h-6.96c-0.32 0-0.64 0.24-0.64 0.64s0.32 0.64 0.64 0.64z"></path>
<path d="M20.64 23.52h-9.28c-0.32 0-0.64 0.24-0.64 0.64s0.24 0.64 0.64 0.64h9.36c0.32 0 0.64-0.24 0.64-0.64s-0.4-0.64-0.72-0.64z"></path>
<path d="M17.36 2.24c0-0.88-0.72-1.6-1.6-1.6s-1.6 0.72-1.6 1.6h-1.84v2.080h6.88v-2.080h-1.84zM15.76 1.92c0.16 0 0.4 0.16 0.4 0.4h-0.72c0-0.24 0.16-0.4 0.32-0.4z"></path>
<path d="M9.040 13.040c-0.56 0-0.96 0.4-0.96 0.96s0.4 0.96 0.96 0.96c0.56 0 0.96-0.4 0.96-0.96s-0.4-0.96-0.96-0.96zM9.040 14.24c-0.16 0-0.24-0.080-0.24-0.24s0.080-0.24 0.24-0.24c0.16 0 0.24 0.080 0.24 0.24s-0.080 0.24-0.24 0.24z"></path>
<path d="M9.040 18.080c-0.56 0-0.96 0.4-0.96 0.96s0.4 0.96 0.96 0.96c0.56 0 0.96-0.4 0.96-0.96s-0.4-0.96-0.96-0.96zM9.040 19.28c-0.16 0-0.24-0.080-0.24-0.24s0.080-0.24 0.24-0.24c0.16 0 0.24 0.080 0.24 0.24s-0.080 0.24-0.24 0.24z"></path>
<path d="M9.040 23.12c-0.56 0-0.96 0.4-0.96 0.96s0.4 0.96 0.96 0.96c0.56 0 0.96-0.4 0.96-0.96s-0.4-0.96-0.96-0.96zM9.040 24.32c-0.16 0-0.24-0.080-0.24-0.24s0.080-0.24 0.24-0.24c0.16 0 0.24 0.080 0.24 0.24s-0.080 0.24-0.24 0.24z"></path>
</svg>
