<!-- Generated by IcoMoon.io -->
<svg version="1.1" xmlns="http://www.w3.org/2000/svg" width="32" height="32" viewBox="0 0 32 32">
<title>KB-BUSINESS_Money-bag</title>
<path d="M14.64 23.76c0.32 0.080 0.64 0.16 1.040 0.24v2.080c0 0.32 0.24 0.64 0.64 0.64s0.64-0.24 0.64-0.64v-2.080c0.8-0.080 1.44-0.32 1.92-0.72 0.56-0.48 0.88-1.12 0.88-1.84 0-0.32-0.080-0.56-0.16-0.8s-0.32-0.4-0.56-0.56c-0.16-0.080-0.32-0.16-0.48-0.24s-0.56-0.16-1.28-0.4l-0.32-0.080v-2.24c0.32 0 0.56 0.080 0.72 0.16 0.24 0.16 0.4 0.32 0.4 0.64v0h1.36c0-0.48-0.24-0.88-0.64-1.28-0.4-0.32-1.040-0.56-1.92-0.56v-1.28c0-0.32-0.24-0.64-0.64-0.64s-0.64 0.24-0.64 0.64v1.36c-0.56 0.080-1.040 0.32-1.44 0.56-0.56 0.48-0.8 0.96-0.8 1.6 0 0.88 0.56 1.44 1.6 1.84l0.56 0.16v2.64c-0.32-0.080-0.56-0.16-0.72-0.24-0.24-0.24-0.4-0.48-0.4-0.8v0h-1.36c0 0.4 0.16 0.8 0.4 1.12 0.4 0.32 0.72 0.56 1.2 0.72zM17.2 20.72c0.72 0.16 1.040 0.56 1.040 0.96 0 0.32-0.16 0.64-0.56 0.88-0.24 0.16-0.48 0.24-0.88 0.32v-2.32l0.4 0.16zM15.12 18.8c-0.16-0.16-0.32-0.32-0.32-0.56 0-0.32 0.16-0.56 0.48-0.8 0.080-0.080 0.24-0.16 0.4-0.16v1.84c-0.24-0.16-0.48-0.24-0.56-0.32z"></path>
<path d="M12.080 31.52l3.92 0.24 3.92-0.24c2.72-0.32 4.8-1.36 6.16-3.2 2.4-3.2 1.68-7.6 1.68-7.76-0.72-6.56-5.28-10.64-6.96-11.92 0.32-0.4 0.48-0.96 0.48-1.44 0-1.28-1.040-2.4-2.32-2.48l1.92-3.6c0.080-0.16 0.080-0.4 0-0.56s-0.32-0.32-0.48-0.32h-8.24c-0.24 0-0.4 0.080-0.56 0.32-0.080 0.16-0.080 0.4 0 0.64l2.080 3.6c-1.2 0.16-2.16 1.2-2.16 2.48 0 0.4 0.080 0.72 0.24 1.040-1.6 1.2-6.8 5.52-7.52 12.32 0 0.16-0.72 4.56 1.68 7.84 1.36 1.68 3.44 2.8 6.16 3.040zM13.2 1.44h6.24l-1.84 3.28h-2.56l-1.84-3.28zM14.080 5.92h4.72c0.72 0 1.36 0.56 1.36 1.36 0 0.4-0.16 0.72-0.4 0.96-0.080 0-0.16 0.080-0.24 0.16-0.16 0.080-0.4 0.16-0.64 0.16h-4.72c-0.4 0-0.72-0.16-0.96-0.4 0 0 0-0.080 0-0.080 0-0.080-0.080-0.080-0.16-0.16-0.24-0.16-0.32-0.4-0.32-0.72 0-0.72 0.64-1.28 1.36-1.28zM5.44 20.72c0.72-6.24 5.68-10.4 7.12-11.52 0.4 0.32 0.96 0.56 1.52 0.56h4.72c0.4 0 0.8-0.080 1.12-0.24 1.28 0.96 6 4.88 6.72 11.28 0 0.080 0.64 4.080-1.44 6.88-1.12 1.52-2.96 2.4-5.28 2.72l-3.92 0.16-3.84-0.24c-2.4-0.24-4.16-1.2-5.36-2.72-2.080-2.72-1.44-6.8-1.36-6.88z"></path>
</svg>
