<!-- Generated by IcoMoon.io -->
<svg version="1.1" xmlns="http://www.w3.org/2000/svg" width="32" height="32" viewBox="0 0 32 32">
<title>KB-ANALYTICS_Graph-4</title>
<path d="M1.68 24.64h13.76v5.040h-5.84c-0.32 0-0.64 0.24-0.64 0.64s0.24 0.64 0.64 0.64h12.88c0.32 0 0.64-0.24 0.64-0.64s-0.24-0.64-0.64-0.64h-5.84v-5.040h13.76c0.32 0 0.64-0.24 0.64-0.64v-22.4c0-0.32-0.24-0.64-0.64-0.64h-28.72c-0.32 0-0.64 0.24-0.64 0.64v22.4c0 0.4 0.32 0.64 0.64 0.64zM2.24 23.44v-2.48h27.52v2.48h-27.52zM29.76 2.24v17.6h-27.52v-17.6h27.52z"></path>
<path d="M5.12 16.16c0.32 0 0.64-0.24 0.64-0.64v-1.6c0-0.32-0.24-0.64-0.64-0.64s-0.56 0.32-0.56 0.72v1.6c0 0.32 0.24 0.56 0.56 0.56z"></path>
<path d="M7.44 16.16c0.32 0 0.64-0.24 0.64-0.64v-5.68c0-0.32-0.24-0.64-0.64-0.64s-0.56 0.4-0.56 0.72v5.68c0 0.32 0.24 0.56 0.56 0.56z"></path>
<path d="M9.6 16.16c0.32 0 0.64-0.24 0.64-0.64v-8.88c0-0.32-0.24-0.64-0.64-0.64s-0.64 0.24-0.64 0.64v8.88c0.080 0.4 0.32 0.64 0.64 0.64z"></path>
<path d="M12.080 16.16c0.32 0 0.64-0.24 0.64-0.64v-6.080c0-0.32-0.24-0.64-0.64-0.64s-0.64 0.24-0.64 0.64v6.080c0 0.4 0.32 0.64 0.64 0.64z"></path>
<path d="M14.24 16.16c0.32 0 0.64-0.24 0.64-0.64v-3.040c0-0.32-0.24-0.64-0.64-0.64s-0.64 0.24-0.64 0.64v3.040c0.080 0.4 0.32 0.64 0.64 0.64z"></path>
<path d="M22.16 15.76c2.48 0 4.56-2 4.72-4.4l-4.72-0.32-0.16-4.72c-2.56 0.080-4.56 2.16-4.56 4.72 0 2.64 2.080 4.72 4.72 4.72zM20.88 7.76l0.080 3.36c0 0.64 0.48 1.12 1.12 1.2l3.36 0.24c-0.56 1.28-1.76 2.16-3.28 2.16-1.92 0-3.52-1.6-3.52-3.52 0-1.68 0.88-2.96 2.24-3.44z"></path>
<path d="M23.2 5.68v4.32h4.32c0-2.4-2-4.32-4.32-4.32zM24.32 8.8v-1.68c0.8 0.32 1.36 0.96 1.68 1.68h-1.68z"></path>
</svg>
