<!-- Generated by IcoMoon.io -->
<svg version="1.1" xmlns="http://www.w3.org/2000/svg" width="32" height="32" viewBox="0 0 32 32">
<title>kb-catlogo-headphone</title>
<path d="M27.52 14.56v-2.24c0-6.48-5.28-11.68-11.68-11.68s-11.76 5.28-11.76 11.68v2.24c-2.16 0.32-3.84 2.16-3.84 4.48s1.76 4.24 4 4.48c0.32 1.84 2.24 7.84 11.040 7.84 0.16 0 0.4 0 0.56 0 0 0 0.080 0 0.080 0h0.16l2.64-0.24c0.96-0.080 1.68-0.96 1.6-1.92v-0.16c-0.080-0.96-0.96-1.68-1.92-1.6l-2.64 0.24c-0.96 0.080-1.68 0.96-1.6 1.92v0.16c0 0.16 0.080 0.24 0.080 0.4-8.16-0.48-8.88-6.8-8.96-7.2v-10.64c0-5.76 4.72-10.48 10.48-10.48s10.48 4.72 10.48 10.48v11.28h0.64c2.48 0 4.48-2 4.48-4.48 0-2.32-1.68-4.24-3.84-4.56zM15.84 28.88l2.64-0.24h0.080c0.32 0 0.56 0.24 0.56 0.56v0.16c0 0.32-0.24 0.56-0.56 0.64l-2.48 0.24c-0.080 0-0.080 0-0.16 0-0.16 0-0.24 0-0.4-0.16-0.080-0.080-0.16-0.24-0.24-0.4v-0.16c0.080-0.4 0.24-0.64 0.56-0.64zM4.16 22.32c-1.52-0.32-2.72-1.6-2.72-3.28s1.2-2.96 2.72-3.28v6.56zM27.52 22.32v-6.48c1.52 0.32 2.72 1.6 2.72 3.28s-1.2 2.88-2.72 3.2zM6.32 13.68v10.8h0.8c1.76 0 3.2-1.44 3.2-3.2v-4.4c0-1.76-1.44-3.2-3.2-3.2h-0.8zM7.52 14.96c0.96 0.16 1.6 1.040 1.6 2v4.4c0 0.96-0.72 1.84-1.6 2v-8.4zM21.52 16.96v4.4c0 1.76 1.44 3.2 3.2 3.2h0.8v-10.88h-0.8c-1.76 0-3.2 1.44-3.2 3.28zM24.32 23.28c-0.96-0.16-1.6-1.040-1.6-2v-4.4c0-0.96 0.72-1.84 1.6-2v8.4z"></path>
</svg>
